<svg id="muuus_logo" data-name="muuus_logo" xmlns="http://www.w3.org/2000/svg" viewBox="0 0 97.8 124.28">
  <g>
    <g>
      <path class="cls-1" d="M23.75,101.27v0a0.31,0.31,0,0,1,0,.05v0Z"/>
      <path class="cls-1" d="M0,79.23c0.47,0.23.45,1.44,0.63,2.16l0.26,0.94L1,81.7a0.44,0.44,0,0,1,.09-0.15c0,1.29.49-.27,0.52,0.72a1.87,1.87,0,0,0,.2-0.52c0.07-.64.15-1.06,0.4-0.46a2,2,0,0,0,.15-0.52c0-.47,0-0.95,0-1.42a1.76,1.76,0,0,1,.16-0.49c0,0.15,0,.31,0,0.44l0.21,1c0-.24-0.15-0.94.16-0.45L3,79.21c0.07-.8.15-1.59,0.19-2.4C3.19,76.57,3,76.16,3,76a22.71,22.71,0,0,0,.15-4,1.45,1.45,0,0,1,.22-0.38v-4.2c-0.09-.5-0.25-1-0.33-1.49,0.08-.06.25-0.13,0.33-0.19V65.56a7.61,7.61,0,0,1-.18-2.85c0-.65,0-1.29,0-1.93a4.07,4.07,0,0,1,.21-0.68V52.32c-0.08-.57-0.24-1.15-0.32-1.72,0.08-.06.24-0.11,0.32-0.17V48.75c-0.05-1-.2-1.93-0.23-2.9L3.1,43c0-.37,0-0.74,0-1.11,0.07,0.12.22,0.23,0.3,0.35V42A4.82,4.82,0,0,1,3.21,40c0-.7-0.09-1.39-0.1-2.09a2.58,2.58,0,0,1,.3-0.68v-2.1c-0.09-.77-0.56-1.54,0-2.31V32.57a2.74,2.74,0,0,1-.33-0.66c0-.57.24-1.1,0.33-1.65V27.31c-0.08.11-.23,0.23-0.3,0.34,0-.2.08-0.39,0.09-0.59,0-.68.17-1.37,0.21-2.06V24.58a3.51,3.51,0,0,1,0-2.1V22.27c-0.08.08-.23,0.16-0.3,0.24,0.07-.5.23-1,0.3-1.5V18.48c-0.51-.56-0.09-1.12,0-1.68V16.59a2.26,2.26,0,0,1,0-2.1v-0.6L0.54,15.14,5,19.32a7.89,7.89,0,0,1,2.31,2.15l6.19,5.77L16,29.53l1.84,1.72,0.58,0.54L18.59,32a12.12,12.12,0,0,1,1.16.77l0.93,0.88,0.09,0.08,0.09,0.09,0.08,0.1a1.25,1.25,0,0,1,.22.55,1.12,1.12,0,0,1,0,.15V34.8l0,1.28c0,0.29-.14.57-0.17,0.85v0.42a3.35,3.35,0,0,1,.17.51v6.65c0,0.84-.14,1.68-0.17,2.51v2.52c0.05,0.52.22,1,.23,1.57,0,1.2,0,2.4,0,3.59a2.11,2.11,0,0,1-.24.51v6.31c0.05,1.06.23,2.13,0.23,3.19,0,1.25-.17,2.5-0.23,3.75v0.21c0,0.76.19,1.52,0.2,2.28l0,7.15c0,0.57-.18,1.14-0.24,1.71v0.42a7.8,7.8,0,0,1,0,2.94v8.62a14.53,14.53,0,0,1,0,4v4.41c0.47,0.23.45,1.44,0.63,2.16l0.26,0.94,0.13-.63a0.44,0.44,0,0,1,.09-0.15c0,1.29.49-.27,0.52,0.72a1.87,1.87,0,0,0,.2-0.52c0.07-.64.15-1.06,0.4-0.46a2,2,0,0,0,.15-0.52c0-.47,0-0.95,0-1.42a1.76,1.76,0,0,1,.16-0.49c0,0.15,0,.31,0,0.44l0.21,1c0-.24-0.15-0.94.16-0.45l0.06-.6c0.07-.8.15-1.59,0.19-2.4,0-.24-0.17-0.64-0.14-0.76a22.72,22.72,0,0,0,.15-4,1.45,1.45,0,0,1,.22-0.38v-4.2c-0.09-.5-0.25-1-0.33-1.49,0.08-.06.25-0.13,0.33-0.19V86.54a7.64,7.64,0,0,1-.1-2.85c0-.65-0.11-1.29-0.11-1.93a4.06,4.06,0,0,1,.21-0.68V73.3c-0.08-.57-0.24-1.15-0.32-1.72,0.08-.06.24-0.11,0.32-0.17V69.72c-0.05-1-.2-1.93-0.23-2.9L24.08,64c0-.37,0-0.74,0-1.11,0.07,0.12.22,0.23,0.3,0.35V63a4.82,4.82,0,0,1-.21-2.06c0-.7-0.09-1.39-0.1-2.09a2.57,2.57,0,0,1,.3-0.68v-2.1c-0.09-.77-0.56-1.54,0-2.31V53.54a2.74,2.74,0,0,1-.33-0.66c0-.57.24-1.1,0.33-1.65V48.29c-0.08.11-.23,0.23-0.31,0.34,0-.2.08-0.39,0.09-0.59,0-.68.17-1.37,0.21-2.06V45.55a3.51,3.51,0,0,1,0-2.1V43.24c-0.08.08-.23,0.16-0.31,0.24,0.07-.5.23-1,0.31-1.5V39.46c-0.51-.56-0.09-1.12,0-1.68V37.57a2.26,2.26,0,0,1,0-2.1V34.6a4.51,4.51,0,0,0-.82-2.53,4.64,4.64,0,0,0-.46-0.55l-0.34-.33L20.3,28.89A7.89,7.89,0,0,1,18,26.74L11.81,21,9.35,18.68,7.5,17l-0.58-.54-0.19-.18a12.08,12.08,0,0,1-1.16-.77c-1-.89-1.86-1.83-2.78-2.75A1.56,1.56,0,0,0,.12,13.79v0.1l0,1.22C0.08,15.4,0,15.68,0,16v0.42a3,3,0,0,1,.09.51v6.65c0,0.84-.06,1.68-0.09,2.51v2.52c0.05,0.52.22,1,.23,1.57,0,1.2,0,2.4,0,3.59a2.11,2.11,0,0,1-.24.51v6.31c0.05,1.06.23,2.13,0.23,3.19,0,1.25-.17,2.5-0.23,3.75V47.7C0,48.46.19,49.22,0.2,50l0,7.15c0,0.57-.18,1.14-0.24,1.71v0.42A7.79,7.79,0,0,1,0,62.2v8.62a14.52,14.52,0,0,1,0,4v4.41Z"/>
      <path class="cls-1" d="M2.77,80.29v0a0.31,0.31,0,0,1,0,.05v0Z"/>
    </g>
    <g>
      <path class="cls-1" d="M13.49,92.2h0a0.06,0.06,0,0,1,0,0h0Z"/>
      <path class="cls-1" d="M14.13,25.47a1.22,1.22,0,0,1-.63-0.89l-0.26-.39c0,0.09-.08.18-0.13,0.26a0.26,0.26,0,0,1-.09.06c0-.53-0.49.11-0.52-0.3a0.67,0.67,0,0,0-.2.22c-0.07.26-.15,0.44-0.4,0.19a0.55,0.55,0,0,0-.15.21c0,0.19,0,.39,0,0.59a0.52,0.52,0,0,1-.16.2,0.86,0.86,0,0,0,0-.18c-0.06-.14-0.14-0.27-0.21-0.4,0,0.1.15,0.39-.16,0.19,0,0.08,0,.17-0.06.25-0.07.33-.15,0.66-0.19,1,0,0.1.17,0.26,0.14,0.32a3.94,3.94,0,0,0-.15,1.65,0.83,0.83,0,0,1-.22.16v1.73c0.09,0.21.25,0.41,0.33,0.62L10.71,31v0.09a1.39,1.39,0,0,1,.18,1.18c0,0.27,0,.53,0,0.8a1.18,1.18,0,0,1-.21.28v3.21C10.8,36.81,11,37,11,37.29l-0.32.07V38c0.05,0.4.2,0.8,0.23,1.2S11,40,11,40.42c0,0.15,0,.31,0,0.46-0.07,0-.22-0.1-0.3-0.14v0.09a0.93,0.93,0,0,1,.21.85,7.92,7.92,0,0,1,.1.86,1,1,0,0,1-.3.28v0.87c0.09,0.32.56,0.64,0,1v0.09A1.27,1.27,0,0,1,11,45a4.37,4.37,0,0,1-.33.68V46.9c0.08,0,.23-0.09.3-0.14a1.29,1.29,0,0,0-.09.24c0,0.28-.17.57-0.21,0.85V48c0.35,0.29.08,0.58,0,.87V49l0.3-.1c-0.07.21-.23,0.41-0.3,0.62v1c0.51,0.23.09,0.46,0,.69v0.09c0.29,0.29.4,0.58,0,.87V55a1.41,1.41,0,0,1,0,1.3v6.35a2.5,2.5,0,0,1,.23.57c0,0.71,0,1.41-.06,2.12a2.16,2.16,0,0,1-.17.35v0.17a1,1,0,0,1,.17.21c0,0.91,0,1.83,0,2.74,0,0.35-.14.69-0.17,1v1a3.75,3.75,0,0,1,.23.65c0,0.49,0,1,0,1.48a0.91,0.91,0,0,1-.24.21v2.6a10.83,10.83,0,0,1,.23,1.32c0,0.52-.17,1-0.23,1.55v0.09c0,0.31.19,0.63,0.2,0.94,0,1,0,2,0,2.95a3.48,3.48,0,0,1-.24.71v0.17a1.39,1.39,0,0,1,0,1.21v3.56a2.53,2.53,0,0,1,0,1.65v1.82a1.22,1.22,0,0,1,.63.89L11.61,93c0-.09.08-0.18,0.13-0.26a0.26,0.26,0,0,1,.09-0.06c0,0.53.49-.11,0.52,0.3a0.67,0.67,0,0,0,.2-0.22c0.07-.26.15-0.44,0.4-0.19a0.55,0.55,0,0,0,.15-0.21c0-.19,0-0.39,0-0.59a0.52,0.52,0,0,1,.16-0.2,0.86,0.86,0,0,0,0,.18c0.06,0.14.14,0.27,0.21,0.4,0-.1-0.15-0.39.16-0.19,0-.08,0-0.17.06-0.25,0.07-.33.15-0.66,0.19-1,0-.1-0.17-0.26-0.14-0.32a4,4,0,0,0,.15-1.65,0.83,0.83,0,0,1,.22-0.16V86.9c-0.09-.21-0.25-0.41-0.33-0.62l0.33-.08V86.12a1.37,1.37,0,0,1-.1-1.18c0-.27-0.11-0.53-0.11-0.8a1.17,1.17,0,0,1,.21-0.28V80.66c-0.08-.24-0.24-0.47-0.32-0.71l0.32-.07V79.18c-0.05-.4-0.2-0.8-0.23-1.2s-0.06-.78-0.08-1.18c0-.15,0-0.31,0-0.46,0.07,0,.22.1,0.3,0.14V76.41a0.93,0.93,0,0,1-.21-0.85,7.88,7.88,0,0,1-.1-0.86,1,1,0,0,1,.3-0.28V73.55c-0.09-.32-0.56-0.64,0-1V72.5a1.27,1.27,0,0,1-.33-0.27,4.37,4.37,0,0,1,.33-0.68V70.34c-0.08,0-.23.09-0.31,0.14a1.29,1.29,0,0,0,.09-0.24c0-.28.17-0.57,0.21-0.85V69.21c-0.35-.29-0.08-0.58,0-0.87V68.25l-0.31.1c0.07-.21.23-0.41,0.31-0.62v-1c-0.51-.23-0.09-0.46,0-0.69V65.91c-0.29-.29-0.4-0.58,0-0.87V62.27a1.41,1.41,0,0,1,0-1.3V54.62A2.5,2.5,0,0,1,13.9,54c0-.71.11-1.41,0.14-2.12a1.76,1.76,0,0,1,.09-0.35V51.41A0.62,0.62,0,0,1,14,51.2c0-.91,0-1.83,0-2.74,0-.35.06-0.69,0.09-1v-1a3.74,3.74,0,0,1-.23-0.65c0-.49,0-1,0-1.48A0.91,0.91,0,0,1,14.13,44v-2.6a10.81,10.81,0,0,1-.23-1.32c0-.52.17-1,0.23-1.55V38.48c0-.31-0.19-0.63-0.2-0.94,0-1,0-2,0-2.95a3.47,3.47,0,0,1,.24-0.71V33.71a1.39,1.39,0,0,1,0-1.21V28.94a2.53,2.53,0,0,1,0-1.65V25.47Z"/>
      <path class="cls-1" d="M11.35,25h0a0.06,0.06,0,0,1,0,0h0Z"/>
    </g>
    <g>
      <path class="cls-1" d="M97.16,81.95h0Z"/>
      <path class="cls-1" d="M97.8,74.7a1.94,1.94,0,0,1-.63-0.1l-0.26,0-0.13,0H96.69c0-.06-0.49,0-0.52,0l-0.2,0a0.76,0.76,0,0,1-.4,0l-0.15,0s0,0,0,.06l-0.16,0,0,0-0.21,0s0.15,0-.16,0l-0.06,0a1.13,1.13,0,0,0-.19.11s0.17,0,.14,0c-0.29.06-.09,0.12-0.15,0.18l-0.22,0v0.19l0.33,0.07H94.39c0.37,0,.17.08,0.18,0.13a0.18,0.18,0,0,1,0,.09l-0.21,0v0.35L94.71,76H94.39v0.08c0.05,0,.2.09,0.23,0.13a0.46,0.46,0,0,1,.08.13,0.07,0.07,0,0,1,0,0l-0.3,0h0c0.32,0,.17.06,0.21,0.09a0.27,0.27,0,0,1,.1.09s-0.22,0-.3,0v0.09c0.09,0,.56.07,0,0.1h0l0.33,0s-0.24,0-.33.07V77l0.3,0L94.6,77s-0.17.06-.21,0.09v0c0.35,0,.08.06,0,0.09h0.3l-0.3.07v0.11c0.51,0,.09.05,0,0.08h0c0.29,0,.4.06,0,0.09v0.3c0.18,0,.25.09,0,0.14v0.68h0a1.35,1.35,0,0,1,.23.06,0.74,0.74,0,0,1-.06.23s-0.14,0-.17,0v0l0.17,0a1.66,1.66,0,0,1,0,.3,0.94,0.94,0,0,1-.17.11v0.11a1.52,1.52,0,0,1,.23.07,0.25,0.25,0,0,1,0,.16l-0.24,0v0.28a0.8,0.8,0,0,1,.23.14,0.9,0.9,0,0,1-.23.17h0a0.3,0.3,0,0,1,.24.42,1.22,1.22,0,0,1-.24.08v0c0.1,0,.27.09,0,0.13v0.39c0.12,0.06.25,0.12,0,.18v0.2A1.94,1.94,0,0,1,95,82l0.26,0,0.13,0H95.5c0,0.06.49,0,.52,0l0.2,0a0.76,0.76,0,0,1,.4,0l0.15,0s0,0,0-.06l0.16,0,0,0,0.21,0s-0.15,0,.16,0l0.06,0a1.13,1.13,0,0,0,.19-0.11s-0.17,0-.14,0c0.29-.06.09-0.12,0.15-0.18l0.22,0V81.37l-0.33-.07H97.8c-0.37,0-.09-0.08-0.1-0.13a0.61,0.61,0,0,1-.11-0.09l0.21,0V80.69l-0.32-.08H97.8V80.53c-0.05,0-.2-0.09-0.24-0.13a0.46,0.46,0,0,1-.08-0.13,0.07,0.07,0,0,1,0,0l0.3,0h0c-0.32,0-.17-0.06-0.21-0.09A0.27,0.27,0,0,1,97.5,80s0.22,0,.3,0V79.92c-0.09,0-.56-0.07,0-0.1h0l-0.33,0s0.24,0,.33-0.07V79.57l-0.31,0,0.09,0s0.17-.06.21-0.09v0c-0.35,0-.08-0.06,0-0.09H97.5l0.31-.07V79.18c-0.51,0-.09-0.05,0-0.08h0c-0.29,0-.4-0.06,0-0.09V78.7c-0.18,0-.25-0.09,0-0.14V77.88h0a1.34,1.34,0,0,1-.23-0.06,1,1,0,0,1,.14-0.23,0.29,0.29,0,0,1,.09,0v0l-0.09,0a1.59,1.59,0,0,1,0-.3,0.33,0.33,0,0,1,.09-0.11V77a1.51,1.51,0,0,1-.23-0.07,0.25,0.25,0,0,1,0-.16l0.24,0V76.44a0.8,0.8,0,0,1-.23-0.14,0.89,0.89,0,0,1,.23-0.17h0a0.3,0.3,0,0,1-.24-0.42,1.22,1.22,0,0,1,.24-0.08v0c-0.1,0-.27-0.09,0-0.13V75.08c-0.12-.06-0.25-0.12,0-0.18V74.7Z"/>
      <path class="cls-1" d="M95,74.65h0Z"/>
    </g>
    <g>
      <path class="cls-1" d="M97.16,67.34h0v0h0Z"/>
      <path class="cls-1" d="M97.8,12.25a1,1,0,0,1-.63-0.73l-0.26-.32c0,0.07-.08.15-0.13,0.21a0.27,0.27,0,0,1-.09.05c0-.44-0.49.09-0.52-0.25a0.61,0.61,0,0,0-.2.18c-0.07.22-.15,0.36-0.4,0.16a0.46,0.46,0,0,0-.15.18c0,0.16,0,.32,0,0.48a0.45,0.45,0,0,1-.16.17,0.61,0.61,0,0,0,0-.15C95.17,12.11,95.1,12,95,11.9c0,0.08.15,0.32-.16,0.15l-0.06.21c-0.07.27-.15,0.54-0.19,0.82,0,0.08.17,0.22,0.14,0.26a2.72,2.72,0,0,0-.15,1.36,0.85,0.85,0,0,1-.22.13v1.43c0.09,0.17.25,0.34,0.33,0.51l-0.33.06V16.9a1,1,0,0,1,.18,1c0,0.22,0,.44,0,0.66a1,1,0,0,1-.21.23v2.65c0.08,0.2.24,0.39,0.32,0.59l-0.32.06v0.57c0.05,0.33.2,0.66,0.23,1s0.06,0.65.08,1a3.6,3.6,0,0,1,0,.38c-0.07,0-.22-0.08-0.3-0.12v0.07a0.67,0.67,0,0,1,.21.7,5.45,5.45,0,0,1,.1.71,1,1,0,0,1-.3.23v0.72c0.09,0.26.56,0.53,0,.79v0.07a1.25,1.25,0,0,1,.33.23,3.39,3.39,0,0,1-.33.56v1c0.08,0,.23-0.08.3-0.12a1,1,0,0,0-.09.2c0,0.23-.17.47-0.21,0.7v0.14c0.35,0.24.08,0.48,0,.72v0.07l0.3-.08c-0.07.17-.23,0.34-0.3,0.51v0.86c0.51,0.19.09,0.38,0,.57v0.07c0.29,0.24.4,0.48,0,.72V36.6a1,1,0,0,1,0,1.07v5.24a1.88,1.88,0,0,1,.23.47c0,0.58,0,1.16-.06,1.75a1.67,1.67,0,0,1-.17.29v0.14a0.91,0.91,0,0,1,.17.17c0,0.75,0,1.51,0,2.26,0,0.29-.14.57-0.17,0.86v0.86a2.77,2.77,0,0,1,.23.54c0,0.41,0,.82,0,1.22a0.88,0.88,0,0,1-.24.17V53.8a7.54,7.54,0,0,1,.23,1.09,11.51,11.51,0,0,1-.23,1.28v0.07a7.08,7.08,0,0,1,.2.78c0,0.81,0,1.62,0,2.44a2.55,2.55,0,0,1-.24.58v0.14a1,1,0,0,1,0,1v2.94a1.75,1.75,0,0,1,0,1.36V67a1,1,0,0,1,.63.73L95.28,68c0-.07.08-0.15,0.13-0.21a0.27,0.27,0,0,1,.09-0.05c0,0.44.49-.09,0.52,0.25a0.61,0.61,0,0,0,.2-0.18c0.07-.22.15-0.36,0.4-0.16a0.46,0.46,0,0,0,.15-0.18c0-.16,0-0.32,0-0.48a0.45,0.45,0,0,1,.16-0.17,0.61,0.61,0,0,0,0,.15c0.06,0.11.14,0.22,0.21,0.33,0-.08-0.15-0.32.16-0.15L97.38,67c0.07-.27.15-0.54,0.19-0.82,0-.08-0.17-0.22-0.14-0.26a2.72,2.72,0,0,0,.15-1.36,0.85,0.85,0,0,1,.22-0.13V63c-0.09-.17-0.25-0.34-0.33-0.51l0.33-.06V62.33a1,1,0,0,1-.1-1c0-.22-0.11-0.44-0.11-0.66a1,1,0,0,1,.21-0.23V57.81c-0.08-.2-0.24-0.39-0.32-0.59l0.32-.06V56.6c-0.05-.33-0.2-0.66-0.24-1s-0.06-.65-0.08-1a3.59,3.59,0,0,1,0-.38c0.07,0,.22.08,0.3,0.12V54.3a0.67,0.67,0,0,1-.21-0.7,5.42,5.42,0,0,1-.1-0.71,1,1,0,0,1,.3-0.23V51.94c-0.09-.26-0.56-0.53,0-0.79V51.08a1.25,1.25,0,0,1-.33-0.23,3.39,3.39,0,0,1,.33-0.56v-1c-0.08,0-.23.08-0.31,0.12a1,1,0,0,0,.09-0.2c0-.23.17-0.47,0.21-0.7V48.36c-0.35-.24-0.08-0.48,0-0.72V47.57l-0.31.08c0.07-.17.23-0.34,0.31-0.51V46.28c-0.51-.19-0.09-0.38,0-0.57V45.64c-0.29-.24-0.4-0.48,0-0.72V42.63a1,1,0,0,1,0-1.07V36.31a1.87,1.87,0,0,1-.23-0.47c0-.58.11-1.16,0.14-1.75a1.25,1.25,0,0,1,.09-0.29V33.66a0.47,0.47,0,0,1-.09-0.17c0-.75,0-1.51,0-2.26,0-.29.06-0.57,0.09-0.86V29.51A2.76,2.76,0,0,1,97.57,29c0-.41,0-0.82,0-1.22a0.87,0.87,0,0,1,.24-0.17V25.43a7.51,7.51,0,0,1-.23-1.09,11.48,11.48,0,0,1,.23-1.28V23a7.13,7.13,0,0,1-.2-0.78c0-.81,0-1.62,0-2.44a2.54,2.54,0,0,1,.24-0.58V19.05a1,1,0,0,1,0-1V15.11a1.75,1.75,0,0,1,0-1.36v-1.5Z"/>
      <path class="cls-1" d="M95,11.89h0v0h0Z"/>
    </g>
    <g>
      <path class="cls-1" d="M32.24,42.44h0a0.09,0.09,0,0,1,0,0h0Z"/>
      <path class="cls-1" d="M45.42,109.52a0.8,0.8,0,0,1-.26-0.67,3.81,3.81,0,0,0-.09-0.84l-0.23-.49c0,0.1-.09.21-0.15,0.31a0.27,0.27,0,0,1-.1.07c0.06-.65-0.49.11-0.5-0.39a0.78,0.78,0,0,0-.22.26c-0.08.33-.21,0.5-0.41,0.21a0.81,0.81,0,0,0-.18.21,4,4,0,0,1-.11.6,0.43,0.43,0,0,1-.21.16,0.53,0.53,0,0,0,0-.19,3.64,3.64,0,0,0-.1-0.44c0,0.08,0,.4-0.2.14l-0.11.21a6.7,6.7,0,0,1-.54.75c-0.06.07,0,.3,0,0.32-0.5.23-.71,0.71-1.16,1a0.74,0.74,0,0,1-.24-0.12,3.62,3.62,0,0,1-1.35.51,3,3,0,0,1-.51.38c0-.08-0.05-0.24-0.07-0.33h0a1,1,0,0,1-1.08,0,2.89,2.89,0,0,1-.66-0.24,0.7,0.7,0,0,1-.11-0.3,3.58,3.58,0,0,1-1.24-1.21,3.23,3.23,0,0,1-.34-0.72l-0.05-.14a3.52,3.52,0,0,1-.44-0.54l0.31-.1c0-.14,0-0.29,0-0.44l0-.17a1.7,1.7,0,0,0-3.4.17v0.21c0,0.23.07,0.45,0.11,0.68H34.9a7.11,7.11,0,0,1-.12-0.79c0-.48-0.06-1-0.08-1.45,0-.19,0-0.38,0-0.56,0.07,0.06.22,0.12,0.3,0.18v-0.11a1.34,1.34,0,0,1-.21-1c0-.35-0.09-0.71-0.1-1.06a1.18,1.18,0,0,1,.3-0.35v-1.07c-0.09-.39-0.56-0.78,0-1.17v-0.11a1.38,1.38,0,0,1-.33-0.34A6,6,0,0,1,35,99.65V98.16c-0.08.06-.23,0.11-0.3,0.17A1.83,1.83,0,0,0,34.8,98c0-.35.17-0.7,0.21-1V96.77a1,1,0,0,1,0-1.07V95.6c-0.08,0-.23.08-0.3,0.12,0.07-.25.23-0.51,0.3-0.76V93.68c-0.51-.28-0.09-0.57,0-0.85V92.72a0.68,0.68,0,0,1,0-1.07V88.24a2.09,2.09,0,0,1,0-1.6V78.83a3.51,3.51,0,0,1-.23-0.7c0-.87,0-1.74.06-2.6A3,3,0,0,1,35,75.09V74.88a1.26,1.26,0,0,1-.17-0.26V71.25c0-.43.14-0.85,0.17-1.28V68.69a5.34,5.34,0,0,1-.23-0.8c0-.61,0-1.22,0-1.82A1,1,0,0,1,35,65.81v-3.2A16.15,16.15,0,0,1,34.78,61c0-.63.17-1.27,0.23-1.9V59c0-.39-0.19-0.77-0.2-1.16,0-1.21,0-2.42,0-3.63A5,5,0,0,1,35,53.33V53.12a2.06,2.06,0,0,1,0-1.49V47.25a3.79,3.79,0,0,1,0-2V43c-0.47-.12-0.45-0.73-0.63-1.09l-0.26-.48c0,0.11-.08.22-0.13,0.32a0.27,0.27,0,0,1-.09.08c0-.65-0.49.14-0.52-0.37a0.78,0.78,0,0,0-.2.27c-0.07.32-.15,0.54-0.4,0.23a0.7,0.7,0,0,0-.15.26c0,0.24,0,.48,0,0.72a0.65,0.65,0,0,1-.16.25,1.27,1.27,0,0,0,0-.22l-0.21-.49c0,0.12.15,0.48-.16,0.23L32,43c-0.07.41-.15,0.81-0.19,1.22,0,0.12.17,0.33,0.14,0.39a5.92,5.92,0,0,0-.15,2,0.86,0.86,0,0,1-.22.19V49c0.09,0.25.25,0.51,0.33,0.76l-0.33.1v0.11a2,2,0,0,1,.1,1.45c0,0.33.11,0.66,0.11,1a1.46,1.46,0,0,1-.21.34v3.95c0.08,0.29.24,0.58,0.32,0.87l-0.32.09v0.85c0.05,0.49.2,1,.23,1.47s0.06,1,.08,1.45c0,0.19,0,.38,0,0.56-0.07-.06-0.22-0.12-0.3-0.18v0.11a1.34,1.34,0,0,1,.21,1c0,0.35.09,0.71,0.1,1.06a1.18,1.18,0,0,1-.3.35v1.07c0.09,0.39.56,0.78,0,1.17v0.11a1.38,1.38,0,0,1,.33.34,6,6,0,0,1-.33.84v1.49c0.08-.06.23-0.11,0.31-0.17a1.83,1.83,0,0,0-.09.3c0,0.35-.17.7-0.21,1v0.21a1,1,0,0,1,0,1.07v0.11c0.08,0,.23-0.08.31-0.12-0.07.25-.23,0.51-0.31,0.76v1.28c0.51,0.28.09,0.57,0,.85v0.11a0.68,0.68,0,0,1,0,1.07v3.41a2.09,2.09,0,0,1,0,1.6v7.81a3.5,3.5,0,0,1,.23.7c0,0.87-.11,1.74-0.14,2.6a2.58,2.58,0,0,1-.09.43v0.21a0.87,0.87,0,0,1,.09.26v3.37c0,0.43-.06.85-0.09,1.28V98.8a5.33,5.33,0,0,1,.23.8c0,0.61,0,1.22,0,1.82a1,1,0,0,1-.24.26v3.2a16.1,16.1,0,0,1,.23,1.62c0,0.62-.17,1.24-0.22,1.87H35v-0.14c0-.25-0.1-0.5-0.15-0.75H31.74a4.56,4.56,0,0,1,.08.52,7,7,0,0,0,1.87,4.14c0.25,0.27.4,0.66,0.67,0.93l0.23,0.17a6.92,6.92,0,0,1,1.75.9,6.71,6.71,0,0,0,1.46.34,5.66,5.66,0,0,0,.62,0h0.39l0.36,0a7.05,7.05,0,0,0,2.76-.78c0.74-.52,1.31-1.15,2.08-1.65A7,7,0,0,0,45.42,109.52Z"/>
      <path class="cls-1" d="M42.87,108.3h0v0h0Z"/>
    </g>
    <g>
      <path class="cls-1" d="M53.32,108.66h0a0.11,0.11,0,0,1,0,0v0Z"/>
      <path class="cls-1" d="M66.25,43.44c-0.47-.11-0.45-0.71-0.63-1.06l-0.26-.46c0,0.1-.08.21-0.13,0.31a0.27,0.27,0,0,1-.09.07c0-.63-0.49.13-0.52-0.36a0.76,0.76,0,0,0-.2.26c-0.07.31-.15,0.52-0.4,0.22a0.67,0.67,0,0,0-.15.25c0,0.23,0,.47,0,0.7a0.62,0.62,0,0,1-.16.24,1.2,1.2,0,0,0,0-.21l-0.21-.48c0,0.12.15,0.46-.16,0.22l-0.06.3c-0.07.39-.15,0.78-0.19,1.18,0,0.12.17,0.32,0.14,0.38a5.56,5.56,0,0,0-.15,2,0.85,0.85,0,0,1-.22.19v2.07c0.09,0.24.25,0.49,0.33,0.73l-0.33.09v0.1a1.93,1.93,0,0,1,.18,1.4c0,0.32,0,.63,0,1a1.41,1.41,0,0,1-.21.33v3.82c0.08,0.28.24,0.56,0.32,0.85l-0.32.08v0.83c0.05,0.48.2,0.95,0.23,1.43s0.06,0.93.08,1.4c0,0.18,0,.36,0,0.55-0.07-.06-0.22-0.11-0.3-0.17v0.1a1.26,1.26,0,0,1,.21,1c0,0.34.09,0.68,0.1,1a1.15,1.15,0,0,1-.3.34v1c0.09,0.38.56,0.76,0,1.14v0.1a1.36,1.36,0,0,1,.33.32,5.7,5.7,0,0,1-.33.81V69c0.08-.06.23-0.11,0.3-0.17a1.73,1.73,0,0,0-.09.29c0,0.34-.17.67-0.21,1v0.21a0.91,0.91,0,0,1,0,1v0.1c0.08,0,.23-0.08.3-0.12-0.07.25-.23,0.49-0.3,0.74v1.24c0.51,0.28.09,0.55,0,.83v0.1a0.64,0.64,0,0,1,0,1v3.31a2,2,0,0,1,0,1.55V87.7a3.33,3.33,0,0,1,.23.68c0,0.84,0,1.68-.06,2.52a2.82,2.82,0,0,1-.17.42v0.21a1.22,1.22,0,0,1,.17.25V95c0,0.41-.14.82-0.17,1.24v1.24a5.06,5.06,0,0,1,.23.77c0,0.59,0,1.18,0,1.77a1,1,0,0,1-.24.25v3.1a15.18,15.18,0,0,1,.23,1.57c0,0.61-.17,1.23-0.23,1.84v0.1c0,0.09,0,.19,0,0.28l0,0.14,0,0.07v0.05h0V107.4h0A2.7,2.7,0,0,1,63,108a4.09,4.09,0,0,1-.29,1.17A3.49,3.49,0,0,1,62,110.2a1.44,1.44,0,0,1-.6.22l-0.11.09a0.74,0.74,0,0,1-.84.44,3.44,3.44,0,0,1-.67.16l-0.35,0H59a3.3,3.3,0,0,1-1.25-.41,1.17,1.17,0,0,1-1-.86,3.69,3.69,0,0,1-.67-1.32,0.89,0.89,0,0,1-.76-0.67l-0.28-.37c0,0.09-.07.18-0.12,0.27a0.28,0.28,0,0,1-.09.07c0-.58-0.48.15-0.53-0.32a0.69,0.69,0,0,0-.19.26c-0.06.32-.1,0.56-0.39,0.27a0.65,0.65,0,0,0-.11.3,5.31,5.31,0,0,0,.17.76,1,1,0,0,1-.07.31c0-.07-0.07-0.16-0.11-0.23s-0.23-.33-0.33-0.5c0,0.15.27,0.5-.11,0.3l0,0.37a5.48,5.48,0,0,0,.37,1.44c0.06,0.14.35,0.26,0.36,0.34A3.88,3.88,0,0,0,55.56,113a1.33,1.33,0,0,1,.07.33,6.68,6.68,0,0,0,2.56,1.06,3.83,3.83,0,0,0,.56-0.09c0.15,0,.26-0.11.39-0.14l0.07,0.34h0.2c0.55-.39,1.22-0.16,1.83-0.37a7.68,7.68,0,0,0,1.12-.56,4.2,4.2,0,0,1,.49,0,6.94,6.94,0,0,0,2.31-2.29,7,7,0,0,0,.65-1.34l0.09-.26a8.21,8.21,0,0,0-.06-1.15c0.08,0,.25,0,0.34-0.08a7.87,7.87,0,0,0,.07-1C66.19,107,66,106.49,66,106s-0.06-.93-0.08-1.4c0-.18,0-0.36,0-0.55,0.07,0.06.22,0.11,0.3,0.17v-0.1a1.26,1.26,0,0,1-.21-1c0-.34-0.09-0.68-0.1-1a1.15,1.15,0,0,1,.3-0.34v-1c-0.09-.38-0.56-0.76,0-1.14v-0.1a1.36,1.36,0,0,1-.33-0.32,5.69,5.69,0,0,1,.33-0.81V96.89c-0.08.06-.23,0.11-0.31,0.17A1.73,1.73,0,0,0,66,96.77c0-.34.17-0.67,0.21-1V95.55a0.91,0.91,0,0,1,0-1v-0.1c-0.08,0-.23.08-0.31,0.12,0.07-.25.23-0.49,0.31-0.74V92.55c-0.51-.28-0.09-0.55,0-0.83v-0.1a0.64,0.64,0,0,1,0-1V87.28a2,2,0,0,1,0-1.55V78.16A3.32,3.32,0,0,1,66,77.49c0-.84.11-1.68,0.14-2.52a2.42,2.42,0,0,1,.09-0.42V74.34a0.83,0.83,0,0,1-.09-0.25V70.82c0-.41.06-0.82,0.09-1.24V68.35A5,5,0,0,1,66,67.57c0-.59,0-1.18,0-1.77a1,1,0,0,1,.24-0.25v-3.1A15.14,15.14,0,0,1,66,60.89c0-.61.17-1.23,0.23-1.84v-0.1c0-.37-0.19-0.75-0.2-1.12,0-1.17,0-2.34,0-3.51a4.7,4.7,0,0,1,.24-0.84V53.26a1.94,1.94,0,0,1,0-1.45V47.57a3.56,3.56,0,0,1,0-2V43.44Z"/>
      <path class="cls-1" d="M63.47,42.92h0a0.08,0.08,0,0,1,0,0h0Z"/>
    </g>
    <g>
      <path class="cls-1" d="M43,53.48v0a0.25,0.25,0,0,1,0,0v0Z"/>
      <path class="cls-1" d="M56,54.49c-0.47-.2-0.45-1.28-0.63-1.91l-0.26-.83c0,0.19-.08.38-0.13,0.56a0.39,0.39,0,0,1-.09.13c0-1.14-.49.24-0.52-0.64a1.54,1.54,0,0,0-.2.46c-0.07.56-.15,0.94-0.4,0.4a1.63,1.63,0,0,0-.15.46c0,0.42,0,.84,0,1.25a1.43,1.43,0,0,1-.16.44,3.73,3.73,0,0,0,0-.39l-0.21-.86c0,0.22.15,0.83-.16,0.4L53,54.51c-0.07.71-.15,1.41-0.19,2.13,0,0.21.17,0.57,0.14,0.68a17.8,17.8,0,0,0-.15,3.54,1.26,1.26,0,0,1-.22.34V64.9c0.09,0.44.25,0.88,0.33,1.32-0.08.06-.25,0.11-0.33,0.17v0.19a6,6,0,0,1,.18,2.52c0,0.57,0,1.14,0,1.71a3.31,3.31,0,0,1-.21.6v6.88c0.08,0.51.24,1,.32,1.52-0.08,0-.24.1-0.32,0.15v1.49c0.05,0.85.2,1.71,0.23,2.57l0.08,2.52c0,0.33,0,.66,0,1-0.07-.1-0.22-0.21-0.3-0.31V87.4a3.8,3.8,0,0,1,.21,1.82c0,0.62.09,1.23,0.1,1.85a2.16,2.16,0,0,1-.3.61v1.86c0.09,0.68.56,1.36,0,2v0.19a2.33,2.33,0,0,1,.33.58c0,0.51-.24,1-0.33,1.46v2.6c0.08-.1.23-0.2,0.3-0.3a5.06,5.06,0,0,0-.09.52c0,0.6-.17,1.21-0.21,1.82v0.37a2.76,2.76,0,0,1,0,1.86v0.19c0.08-.07.23-0.14,0.3-0.21-0.07.44-.23,0.89-0.3,1.33v2.23c0.51,0.5.09,1,0,1.49v0.19a1.8,1.8,0,0,1,0,1.86v5.69l1.71-1.71h0a1.7,1.7,0,0,0-1.7,1.59v0.28a1.62,1.62,0,0,1-.57,1.74,3.43,3.43,0,0,1-2,1.4,2.78,2.78,0,0,1-.61.1H49.1c-0.14,0-.35,0-0.43,0l-0.23,0-0.3-.08a4.17,4.17,0,0,1-.57-0.24,3.48,3.48,0,0,1-1.4-1.37,3.31,3.31,0,0,1-.42-1.41V116.9a9.6,9.6,0,0,1-.23-1.22l0.06-4.54c0-.25.14-0.5,0.17-0.76V110a2.73,2.73,0,0,1-.17-0.45v-5.88c0-.74.14-1.48,0.17-2.22V99.23c-0.05-.46-0.22-0.92-0.23-1.39,0-1.06,0-2.12,0-3.18a1.78,1.78,0,0,1,.24-0.45V88.63c-0.05-.94-0.23-1.88-0.23-2.82,0-1.11.17-2.21,0.23-3.32V82.31c0-.67-0.19-1.34-0.2-2l0-6.32a14,14,0,0,1,.24-1.52V72.08a6.12,6.12,0,0,1,0-2.6V61.86a11.39,11.39,0,0,1,0-3.53v-3.9c-0.47-.2-0.45-1.28-0.63-1.91l-0.26-.83c0,0.19-.08.38-0.13,0.56a0.39,0.39,0,0,1-.09.13c0-1.14-.49.24-0.52-0.64a1.54,1.54,0,0,0-.2.46c-0.07.56-.15,0.94-0.4,0.4a1.63,1.63,0,0,0-.15.46c0,0.42,0,.84,0,1.25a1.43,1.43,0,0,1-.16.44,3.73,3.73,0,0,0,0-.39L43,53.5c0,0.22.15,0.83-.16,0.4l-0.06.53c-0.07.71-.15,1.41-0.19,2.13,0,0.21.17,0.57,0.14,0.68a17.8,17.8,0,0,0-.15,3.54,1.26,1.26,0,0,1-.22.34v3.72c0.09,0.44.25,0.88,0.33,1.32-0.08.06-.25,0.11-0.33,0.17v0.19a6,6,0,0,1,.1,2.52c0,0.57.11,1.14,0.11,1.71a3.3,3.3,0,0,1-.21.6v6.88c0.08,0.51.24,1,.32,1.52-0.08,0-.24.1-0.32,0.15v1.49c0.05,0.85.2,1.71,0.23,2.57l0.08,2.52c0,0.33,0,.66,0,1-0.07-.1-0.22-0.21-0.3-0.31v0.19a3.8,3.8,0,0,1,.21,1.82c0,0.62.09,1.23,0.1,1.85a2.15,2.15,0,0,1-.3.61v1.86c0.09,0.68.56,1.36,0,2V95.7a2.32,2.32,0,0,1,.33.58c0,0.51-.24,1-0.33,1.46v2.6c0.08-.1.23-0.2,0.31-0.3a5.06,5.06,0,0,0-.09.52c0,0.6-.17,1.21-0.21,1.82v0.37a2.76,2.76,0,0,1,0,1.86v0.19c0.08-.07.23-0.14,0.31-0.21-0.07.44-.23,0.89-0.31,1.33v2.23c0.51,0.5.09,1,0,1.49v0.19a1.8,1.8,0,0,1,0,1.86v6a17.88,17.88,0,0,0,1.11,3.5,6.85,6.85,0,0,0,4,2.85,6.74,6.74,0,0,0,1.27.21h0.58l0.62,0a6.85,6.85,0,0,0,5.21-3.4,6.67,6.67,0,0,0,.88-2.82l0-.57-1.71,1.71h0A1.71,1.71,0,0,0,56,117.45V117a9.57,9.57,0,0,1-.23-1.22c0-1.51.11-3,.14-4.54a7.48,7.48,0,0,1,.09-0.76v-0.37a2.38,2.38,0,0,1-.09-0.45v-5.88c0-.74.06-1.48,0.09-2.22V99.3c-0.05-.46-0.22-0.92-0.23-1.39,0-1.06,0-2.12,0-3.18A1.78,1.78,0,0,1,56,94.28V88.7c-0.05-.94-0.23-1.88-0.23-2.82,0-1.11.17-2.21,0.23-3.32V82.38c0-.67-0.19-1.34-0.2-2l0-6.32A14,14,0,0,1,56,72.53V72.15a6.12,6.12,0,0,1,0-2.6V61.93a11.38,11.38,0,0,1,0-3.53v-3.9Z"/>
      <path class="cls-1" d="M53.21,53.55v0a0.24,0.24,0,0,1,0,0v0Z"/>
    </g>
    <g>
      <path class="cls-1" d="M73.78,76.61v0a0.32,0.32,0,0,1,0-.05v0Z"/>
      <path class="cls-1" d="M84.34,47.57C84.8,47.8,84.79,49,85,49.74l0.26,0.95,0.13-.63a0.45,0.45,0,0,1,.09-0.15c0,1.3.49-.27,0.52,0.73a1.89,1.89,0,0,0,.2-0.53c0.07-.64.15-1.07,0.4-0.46a2,2,0,0,0,.15-0.52c0-.47,0-1,0-1.43a1.79,1.79,0,0,1,.16-0.5c0,0.15,0,.31,0,0.44l0.21,1c0-.25-0.15-0.95.16-0.46l0.06-.61c0.07-.81.15-1.61,0.19-2.42,0-.24-0.17-0.65-0.14-0.77a23.07,23.07,0,0,0,.15-4,1.47,1.47,0,0,1,.22-0.38V35.7c-0.09-.5-0.25-1-0.33-1.5,0.08-.06.25-0.13,0.33-0.19V33.8a7.73,7.73,0,0,1-.18-2.87c0-.65,0-1.3,0-1.95a4.13,4.13,0,0,1,.21-0.68V22.56a1.71,1.71,0,0,0-2.89-1.23L83.65,22.5l-0.3.29c-0.36.46-.66,1-1,1.44-0.1,0-.25-0.09-0.35-0.11l-1.22,1.18c-0.66.71-1.26,1.49-1.94,2.2l-2,2.05c-0.26.26-.54,0.51-0.82,0.77,0-.13,0-0.32,0-0.46L75.87,30a2.09,2.09,0,0,1-.57.84l-0.4.37-0.2.19-0.24.25a4.42,4.42,0,0,0-1,2.95,2.61,2.61,0,0,1-.3.69v2.12c0.09,0.78.56,1.55,0,2.33V40a2.77,2.77,0,0,1,.33.67c0,0.58-.24,1.11-0.33,1.66v3c0.08-.11.23-0.23,0.3-0.34,0,0.2-.08.39-0.09,0.6,0,0.69-.17,1.38-0.21,2.07V48a3.56,3.56,0,0,1,0,2.12v0.21c0.08-.08.23-0.16,0.3-0.24-0.07.5-.23,1-0.3,1.51v2.54c0.51,0.56.09,1.13,0,1.69V56a2.29,2.29,0,0,1,0,2.12v6.78a8.77,8.77,0,0,1,.1,2.6A1.5,1.5,0,0,0,75.61,69L76,68.71q0.24-.17.49-0.32l6.18-5.87,2.46-2.33,1.84-1.75,0.29-.28-2.88-1.24v0.66A12.31,12.31,0,0,1,84.57,59l-0.06,5.17c0,0.29-.14.57-0.17,0.86v0.42a3.4,3.4,0,0,1,.17.51v6.7c0,0.85-.14,1.69-0.17,2.53V77.7c0.05,0.53.22,1.05,0.23,1.58,0,1.2,0,2.42,0,3.62a2.14,2.14,0,0,1-.24.51v6.35l0,0.41L84.89,89C84.26,89.66,83.67,90.4,83,91c-0.92.87-1.95,1.61-2.9,2.44l-0.15.15c-0.53.56-1,1.19-1.53,1.72l-4.57,4.4,2.47,1.06V100c0-.58.18-1.15,0.24-1.73V97.81a7.92,7.92,0,0,1,0-3V86.16a14.76,14.76,0,0,1,0-4V77.69c-0.47-.23-0.45-1.45-0.63-2.17l-0.26-.95-0.13.63a0.45,0.45,0,0,1-.09.15c0-1.3-.49.27-0.52-0.73a1.89,1.89,0,0,0-.2.53c-0.07.64-.15,1.07-0.4,0.46a2,2,0,0,0-.15.52c0,0.47,0,1,0,1.43a1.78,1.78,0,0,1-.16.5c0-.15,0-0.31,0-0.44l-0.21-1c0,0.25.15,0.95-.16,0.46l-0.06.61c-0.07.81-.15,1.61-0.19,2.42,0,0.24.17,0.65,0.14,0.77a23.07,23.07,0,0,0-.15,4,1.46,1.46,0,0,1-.22.38v4.24c0.09,0.5.25,1,.33,1.5-0.08.06-.25,0.13-0.33,0.19v0.21a7.76,7.76,0,0,1,.1,2.87c0,0.65.11,1.3,0.11,1.95a4.12,4.12,0,0,1-.21.68v3.85A1.71,1.71,0,0,0,76,102.05l0.89-.85,1.69-1.6,0.31-.29c0.36-.46.67-1,1-1.43,0.09,0,.25.1,0.34,0.12l1.23-1.17c0.67-.71,1.28-1.48,2-2.18l2-2c0.26-.26.55-0.51,0.82-0.76,0,0.13,0,.32-0.05.46l0.15-.15a2.19,2.19,0,0,1,.63-0.89h0a1.48,1.48,0,0,0,.45-1.07c0-.34,0-0.68,0-1,0-.7-0.09-1.4-0.1-2.11a2.6,2.6,0,0,1,.3-0.69V84.27c-0.09-.78-0.56-1.55,0-2.33V81.73a2.77,2.77,0,0,1-.33-0.67c0-.58.24-1.11,0.33-1.66v-3c-0.08.11-.23,0.23-0.31,0.34,0-.2.08-0.39,0.09-0.6,0-.69.17-1.38,0.21-2.07V73.68a3.56,3.56,0,0,1,0-2.12V71.35c-0.08.08-.23,0.16-0.31,0.24,0.07-.5.23-1,0.31-1.51V67.53c-0.51-.56-0.09-1.13,0-1.69V65.63a2.29,2.29,0,0,1,0-2.12V56.92a1.71,1.71,0,0,0-2.88-1.24l-0.14.13A8,8,0,0,1,82.43,58l-6.18,5.87L73.79,66.2l-0.11.11,2.88,1.24V64.1a12.27,12.27,0,0,1-.23-1.39c0-1.72.11-3.45,0.14-5.17,0-.29.06-0.57,0.09-0.86V56.26a3,3,0,0,1-.09-0.51V49c0-.85.06-1.69,0.09-2.53V44c-0.05-.53-0.22-1.05-0.23-1.58,0-1.2,0-2.42,0-3.62a2.13,2.13,0,0,1,.24-0.51V35.08a2.12,2.12,0,0,1,.08-0.93,1.08,1.08,0,0,1,.15-0.27l0.13-.15,0.26-.25c0.73-.78,1.38-1.65,2.15-2.39s1.93-1.62,2.88-2.46l0.15-.15c0.52-.56,1-1.2,1.52-1.74l3.19-3.13-2.49-1.06v2.73c0,0.58-.18,1.15-0.24,1.73v0.42a7.92,7.92,0,0,1,0,3v8.68a14.75,14.75,0,0,1,0,4v4.45Z"/>
      <path class="cls-1" d="M87.11,48.64v0a0.3,0.3,0,0,1,0,.05v0Z"/>
    </g>
    <g>
      <g>
        <path class="cls-1" d="M67,11.31h0l0,0h0Z"/>
        <path class="cls-1" d="M66.16,11.08c0.42-.25.84,0.27,1.23,0.43l0.52,0.21c0-.11-0.09-0.23-0.12-0.34a0.27,0.27,0,0,1,0-.12c0.43,0.54.27-.43,0.65,0a0.82,0.82,0,0,0,0-.34c-0.17-.3-0.26-0.53.14-0.45a0.75,0.75,0,0,0-.07-0.31c-0.16-.2-0.34-0.37-0.52-0.56a0.7,0.7,0,0,1-.07-0.3,1.56,1.56,0,0,0,.2.15l0.51,0.26c-0.07-.11-0.45-0.29,0-0.29-0.05-.09-0.12-0.19-0.19-0.29C68.12,8.72,67.87,8.32,67.57,8c-0.09-.1-0.38-0.12-0.41-0.19a5.86,5.86,0,0,0-1.58-1.61,1,1,0,0,1,0-.31c-0.63-.49-1.27-1-1.93-1.41C63.33,4.35,63,4.34,62.72,4.27l0.08-.34-0.1-.06a2.91,2.91,0,0,1-1.5-.65c-0.33-.17-0.66-0.32-1-0.47A1.74,1.74,0,0,1,60,2.39C59.52,2.18,59.08,2,58.63,1.83s-0.9-.35-1.36-0.5S56.44,1.05,56,.94l-0.23-.06c-0.34,0-.69.06-1,0.07l0-.33-0.94-.2c-0.56,0-1.12,0-1.67,0l-1.62-.06c-0.21,0-.42,0-0.63,0C49.93,0.25,50,.1,50.07,0H50a0.78,0.78,0,0,1-.57.2H48.75c-0.37,0-.74.11-1.12,0.13A1.31,1.31,0,0,1,47.22.08c-0.41,0-.83.07-1.24,0.12s-0.78.68-1.31,0.2l-0.12,0a1.59,1.59,0,0,1-.31.4,7.83,7.83,0,0,1-1-.13c-0.55.13-1.09,0.29-1.63,0.44,0.08,0.05.19,0.18,0.27,0.24a1.51,1.51,0,0,0-.35,0c-0.38.08-.79,0.09-1.18,0.17l-0.23.08A1.21,1.21,0,0,1,39,2.08l-0.11,0C39,2.17,39.1,2.3,39.18,2.35c-0.29,0-.61,0-0.9.07S37.4,2.83,37,3.07c0,0.6-.52.37-0.84,0.46L36,3.59a0.83,0.83,0,0,1-1,.62A28.69,28.69,0,0,0,32,6.52a2.86,2.86,0,0,1-1.32,1.21c-0.77.75-1.49,1.56-2.19,2.38l0,0a1.65,1.65,0,0,0,0,2.14l1,1.18c0.45,0.45.86,0.94,1.34,1.36s0.69,0.67,1.06,1l0.34,0.29,0.11,0.1a7.06,7.06,0,0,1,.75.31c0.76,0.6,1.53,1.18,2.33,1.72a3.66,3.66,0,0,1,.33.4l0.2,0.12a1.45,1.45,0,0,1,.33,0,29.47,29.47,0,0,0,3.39,1.64C40.1,20.57,40.5,20.86,41,21s0.91,0.31,1.38.42a7.84,7.84,0,0,1,.92,0c0.67,0.11,1.33.29,2,.38a1.13,1.13,0,0,1,.25.28,26.8,26.8,0,0,0,3.6.27c0.68-.07,1.14-0.25,1.77-0.29s1.48,0.05,2.19,0l0.12,0c0.43-.09.82-0.33,1.24-0.43a28.45,28.45,0,0,0,3.87-1.2,6.41,6.41,0,0,1,1-.14l0.22-.1A2.83,2.83,0,0,1,61,19.47a26.21,26.21,0,0,0,4.13-2.65,5.7,5.7,0,0,1,1.74-1.46c0.62-.57,1.21-1.15,1.78-1.77-0.24-.4.21-0.91,0.33-1.33l0.14-.56-0.33.18a0.28,0.28,0,0,1-.12,0c0.48-.52-0.47-0.2-0.14-0.63a0.85,0.85,0,0,0-.34.08c-0.28.21-.48,0.33-0.46-0.08a0.74,0.74,0,0,0-.29.11c-0.17.17-.29,0.4-0.48,0.57a0.67,0.67,0,0,1-.29.08,1.31,1.31,0,0,0,.13-0.19A4.94,4.94,0,0,0,67,11.32c-0.09.08-.21,0.46-0.27,0.07l-0.25.19c-0.33.25-.66,0.49-1,0.74-0.1.07-.12,0.35-0.18,0.37a7.5,7.5,0,0,0-1.61,1.23,0.76,0.76,0,0,1-.29-0.06c-0.55.43-1.11,0.85-1.7,1.24a8,8,0,0,1-.45.69c-0.07-.05-0.18-0.18-0.26-0.23l-0.09.05a1.77,1.77,0,0,1-1.19.8,7.3,7.3,0,0,1-.82.53,1.41,1.41,0,0,1-.4,0c-0.38.19-.76,0.34-1.15,0.49s-0.78.3-1.18,0.43-0.73.24-1.1,0.34l-0.2.05c-0.25.15-.49,0.39-0.76,0.52,0-.07-0.11-0.22-0.15-0.3l-0.82.17c-0.46.13-.92,0.34-1.39,0.45s-0.9.15-1.39,0.19c-0.2,0-.4,0-0.59,0C49.84,19.18,49.9,19,50,19H49.85a0.71,0.71,0,0,1-.52.23,1.19,1.19,0,0,1-.24,0H48.82c-0.35,0-.7.07-1.05,0.06a1.17,1.17,0,0,1-.32-0.33l-1-.1c-0.38,0-.85.44-1.14-0.17l-0.1,0a1.28,1.28,0,0,1-.38.26A5.54,5.54,0,0,1,44,18.38c-0.47-.12-0.94-0.25-1.41-0.38,0,0.09,0,.26.07,0.34s-0.16-.13-0.26-0.18c-0.31-.16-0.6-0.38-0.91-0.53l-0.2-.07a0.93,0.93,0,0,1-1-.39l-0.1,0c0,0.09,0,.24,0,0.32-0.21-.16-0.37-0.42-0.56-0.59-0.38-.17-0.76-0.35-1.12-0.56-0.49.31-.55-0.18-0.73-0.4l-0.09-.05a0.66,0.66,0,0,1-.9-0.55,25.28,25.28,0,0,1-2.68-2A1.89,1.89,0,0,1,33,12.22c-0.68-.66-1.32-1.37-1.93-2.1v2.16l0.91-1c0.4-.4.76-0.83,1.18-1.2s0.6-.59.93-0.85l0.3-.26,0.1-.08a2.49,2.49,0,0,1,.39-0.62,18.84,18.84,0,0,1,2.19-1.37A2.51,2.51,0,0,1,37.5,6.7l0.18-.11a0.86,0.86,0,0,1,.17-0.21,20.9,20.9,0,0,1,3-1.45A7.87,7.87,0,0,1,42,4.59c0.39-.14.79-0.27,1.2-0.37a4.56,4.56,0,0,1,.7-0.43,13.5,13.5,0,0,1,1.77-.34,1,1,0,0,1,.29.2c0.52-.09,1-0.12,1.51-0.17s1.11,0,1.65-.07a9.48,9.48,0,0,1,1.55-.17,11.24,11.24,0,0,1,1.83.44l0.1,0a6.88,6.88,0,0,1,1.15,0,18.63,18.63,0,0,1,3.45,1,4.74,4.74,0,0,1,.7.54l0.19,0.09A1.86,1.86,0,0,1,59.46,6a22.79,22.79,0,0,1,3.62,2.32,3.22,3.22,0,0,1,1.53,1.28l0.8,0.76Z"/>
        <path class="cls-1" d="M68.63,9.67h0v0Z"/>
      </g>
      <g>
        <polygon class="cls-1" points="56.93 4.2 56.94 4.21 56.94 4.2 56.93 4.2"/>
        <path class="cls-1" d="M42,4.35A0.85,0.85,0,0,1,41.36,4L41.1,3.84,41,4,40.88,4c0-.23-0.48.07-0.52-0.11a0.65,0.65,0,0,0-.2.1c-0.07.12-.14,0.2-0.4,0.1a0.37,0.37,0,0,0-.14.1c0,0.08,0,.17,0,0.25a0.4,0.4,0,0,1-.15.09,0.22,0.22,0,0,0,0-.08l-0.21-.16s0.16,0.16-.16.09L39,4.49a2.8,2.8,0,0,0-.17.44S39,5,39,5.07a1.07,1.07,0,0,0,0,.85,1.15,1.15,0,0,1-.21.12c0,0.3.12,0.57,0.18,0.85C39,7,39.23,7,39.33,7.11L39,7.23v0c0.4,0.07.28,0.32,0.35,0.5a3.3,3.3,0,0,1,.15.36,1,1,0,0,1-.15.2l0.41,1c0.06,0.15.15,0.28,0.22,0.43l0,0.08c0.13,0.07.33,0.09,0.45,0.16l-0.26.19a3.13,3.13,0,0,0,.18.3c0.16,0.14.39,0.23,0.53,0.37l0.4,0.43a1.31,1.31,0,0,1,.13.19l-0.28.13,0,0c0.33-.11.31,0.11,0.43,0.2S41.89,12,42,12.05a1.13,1.13,0,0,1-.12.31l0.31,0.32c0.18,0.06.61-.19,0.36,0.33l0,0a1.6,1.6,0,0,1,.32-0.16,2.56,2.56,0,0,1,.05.48,4.39,4.39,0,0,0,.5.38l0.12-.29a0.5,0.5,0,0,0,0,.15c0.09,0.12.14,0.3,0.24,0.42l0.07,0.05c0.31-.21.29,0.09,0.39,0.23l0,0L44.45,14c0.05,0.11.07,0.3,0.13,0.42s0.31,0.18.48,0.25c0.32-.41.25,0,0.33,0.14l0,0c0.25-.21.42-0.26,0.42,0.17a10.56,10.56,0,0,0,1.4.39,0.45,0.45,0,0,1,.67.11c0.3,0,.61,0,0.91.07h0.53l0.38,0a5.16,5.16,0,0,0,.65-0.06l0.59-.1,0.18,0h0.06a2.12,2.12,0,0,1,.24-0.3c0.34-.1.71-0.15,1.05-0.27a1.14,1.14,0,0,1,.23.09l0.08,0a0.88,0.88,0,0,1,0-.2c0.44-.17.83-0.42,1.25-0.63,0.16-.08.37-0.07,0.53-0.15l0.44-.3a2.19,2.19,0,0,1,.11-0.39,5.58,5.58,0,0,1,.57-0.48,1.11,1.11,0,0,1,.24.1,12.09,12.09,0,0,0,.9-1,3.34,3.34,0,0,1,.23-0.65,6.55,6.55,0,0,1,.62-0.51l0,0c0.05-.16,0-0.36.08-0.5,0.21-.44.43-0.87,0.61-1.32a1.4,1.4,0,0,1,.36-0.23l0-.08c0-.22-0.13-0.47.2-0.57a13.84,13.84,0,0,0,.45-1.71,0.68,0.68,0,0,1,.11-0.81,7.34,7.34,0,0,0,.07-0.9,0.87,0.87,0,0,1-.62-0.45l-0.25-.18L58.7,4,58.6,4c0-.24-0.49,0-0.51-0.14a0.7,0.7,0,0,0-.21.09c-0.08.11-.16,0.18-0.4,0.07a0.4,0.4,0,0,0-.15.08c0,0.08,0,.16,0,0.24a0.4,0.4,0,0,1-.16.07,0.19,0.19,0,0,0,0-.07l-0.2-.17s0.14,0.16-.17.07l-0.06.09a2.39,2.39,0,0,0-.21.36s0.16,0.11.13,0.13c-0.32.17-.15,0.4-0.23,0.6a1.23,1.23,0,0,1-.23,0c0,0.21-.09.41-0.13,0.62s0.21,0.21.27,0.3L56,6.34v0c0.32,0.23,0,.3,0,0.44a2.13,2.13,0,0,1,0,.32,0.83,0.83,0,0,1-.23,0l-0.29.69c0,0.11-.11.2-0.16,0.3l0,0.05c0,0.11.13,0.27,0.16,0.38l-0.29-.14a1.73,1.73,0,0,1-.12.22c0,0.15,0,.34,0,0.49a1.62,1.62,0,0,1-.19.4,0.74,0.74,0,0,1-.12.12l-0.2-.22,0,0c0.2,0.27,0,.27,0,0.37a0.76,0.76,0,0,1-.14.3A1.21,1.21,0,0,1,54,10l-0.21.22c0,0.15.22,0.58-.25,0.23l0,0a1.59,1.59,0,0,1,.14.31,1.63,1.63,0,0,1-.4-0.1,2.33,2.33,0,0,1-.34.25l0.22,0.22a0.45,0.45,0,0,0-.13,0c-0.11,0-.26,0-0.36,0l0,0c0.11,0.36-.14.17-0.26,0.15h0l0.18,0.25c-0.1,0-.24-0.13-0.34-0.16a3.38,3.38,0,0,1-.32.17c0.14,0.49-.11.15-0.22,0.09h0c0,0.31,0,.45-0.27.11a7.35,7.35,0,0,1-.88.24c-0.09.2-.23,0.29-0.37,0.07-0.18,0-.48,0-0.72.05H49.06l-0.29,0a2.88,2.88,0,0,1-.47,0L48,12.05l-0.11,0h0a0.65,0.65,0,0,1-.24.18,3.41,3.41,0,0,1-.66-0.36,0.37,0.37,0,0,1-.08-0.13l-0.05,0a0.22,0.22,0,0,1-.1.05,4.89,4.89,0,0,1-.85-0.42,1.31,1.31,0,0,1-.25-0.28l-0.3-.2a0.84,0.84,0,0,1-.32,0,2.9,2.9,0,0,1-.41-0.34,1.06,1.06,0,0,1,.11-0.22A8.7,8.7,0,0,1,44,9.65a1.79,1.79,0,0,1-.48-0.23,2.18,2.18,0,0,1-.13-0.59l0,0A1.25,1.25,0,0,1,43,8.61a5.2,5.2,0,0,1-.52-1,0.93,0.93,0,0,1,.12-0.33l0-.06c-0.16-.09-0.35-0.19-0.14-0.42a10.47,10.47,0,0,1-.33-1.25c-0.14-.16-0.3-0.34-0.08-0.54A4.75,4.75,0,0,1,42,4.35Z"/>
        <polygon class="cls-1" points="39.23 4.29 39.24 4.29 39.24 4.28 39.23 4.29"/>
      </g>
      <g>
        <path class="cls-1" d="M31.28,11.08h0l0,0h0Z"/>
        <path class="cls-1" d="M32.14,11.31c-0.42.25-.84-0.27-1.23-0.43l-0.52-.21c0,0.11.09,0.23,0.12,0.34a0.27,0.27,0,0,1,0,.12c-0.43-.54-0.27.43-0.65,0a0.82,0.82,0,0,0,0,.34c0.17,0.3.26,0.53-.14,0.45a0.75,0.75,0,0,0,.07.31c0.16,0.2.34,0.37,0.52,0.56a0.7,0.7,0,0,1,.07.3,1.56,1.56,0,0,0-.2-0.15l-0.51-.26c0.07,0.11.45,0.29,0,.29,0.05,0.09.12,0.19,0.19,0.29,0.27,0.37.52,0.77,0.82,1.12,0.09,0.1.38,0.13,0.41,0.19a5.86,5.86,0,0,0,1.58,1.61,1,1,0,0,1,0,.31c0.63,0.49,1.27,1,1.93,1.41C35,18,35.29,18,35.57,18.12l-0.08.34,0.1,0.06a2.91,2.91,0,0,1,1.5.65c0.33,0.17.66,0.32,1,.47a1.74,1.74,0,0,1,.26.35c0.43,0.21.88,0.39,1.33,0.57s0.9,0.35,1.36.5,0.84,0.28,1.27.39l0.23,0.06c0.34,0,.69-0.06,1-0.07l0,0.33L44.52,22c0.56,0,1.12,0,1.67,0L47.8,22c0.21,0,.42,0,0.63,0-0.07.07-.14,0.22-0.21,0.29h0.12a0.78,0.78,0,0,1,.57-0.2h0.63c0.37,0,.74-0.11,1.12-0.13a1.31,1.31,0,0,1,.41.27c0.41,0,.83-0.07,1.24-0.12s0.78-.68,1.31-0.2l0.12,0a1.59,1.59,0,0,1,.31-0.4,7.83,7.83,0,0,1,1,.13c0.55-.13,1.09-0.29,1.63-0.44-0.08-.05-0.19-0.18-0.27-0.24a1.51,1.51,0,0,0,.35,0c0.38-.08.79-0.09,1.18-0.17l0.23-.08a1.21,1.21,0,0,1,1.12-.45l0.11,0c-0.07-.05-0.18-0.18-0.25-0.23,0.29,0,.61,0,0.9-0.07s0.87-.41,1.29-0.64c0-.6.52-0.37,0.84-0.46l0.1-.06a0.83,0.83,0,0,1,1-.62,28.68,28.68,0,0,0,3.06-2.3,2.86,2.86,0,0,1,1.32-1.21c0.77-.75,1.49-1.56,2.19-2.38l0,0a1.65,1.65,0,0,0,0-2.14l-1-1.18C68.38,8.48,68,8,67.49,7.57s-0.69-.67-1.06-1l-0.34-.29L66,6.21a7.07,7.07,0,0,1-.75-0.31c-0.76-.6-1.53-1.18-2.33-1.72a3.67,3.67,0,0,1-.33-0.4l-0.2-.12a1.45,1.45,0,0,1-.33,0A29.47,29.47,0,0,0,58.63,2c-0.44-.19-0.84-0.48-1.29-0.66S56.43,1,56,.93a7.84,7.84,0,0,1-.92,0C54.37,0.81,53.71.64,53,.54A1.13,1.13,0,0,1,52.78.27,26.79,26.79,0,0,0,49.19,0C48.5,0.07,48,.25,47.42.29s-1.48-.05-2.19,0l-0.12,0c-0.43.09-.82,0.33-1.24,0.43A28.46,28.46,0,0,0,40,2a6.41,6.41,0,0,1-1,.14l-0.22.1a2.83,2.83,0,0,1-1.52.73,26.21,26.21,0,0,0-4.13,2.65A5.7,5.7,0,0,1,31.39,7c-0.62.57-1.21,1.15-1.78,1.77,0.24,0.4-.21.91-0.33,1.33l-0.14.56,0.33-.18a0.28,0.28,0,0,1,.12,0c-0.48.52,0.47,0.2,0.14,0.63A0.85,0.85,0,0,0,30.07,11c0.28-.21.48-0.33,0.46,0.08A0.74,0.74,0,0,0,30.82,11c0.17-.17.29-0.4,0.48-0.57a0.67,0.67,0,0,1,.29-0.08,1.31,1.31,0,0,0-.13.19,4.93,4.93,0,0,0-.18.51c0.09-.08.21-0.46,0.27-0.07l0.25-.19c0.33-.25.66-0.49,1-0.74,0.1-.07.12-0.35,0.18-0.37a7.5,7.5,0,0,0,1.61-1.23,0.76,0.76,0,0,1,.29.06c0.55-.43,1.11-0.85,1.7-1.24A8.05,8.05,0,0,1,37,6.6c0.07,0.05.18,0.18,0.26,0.23l0.09-.05A1.77,1.77,0,0,1,38.56,6a7.3,7.3,0,0,1,.82-0.53,1.41,1.41,0,0,1,.4,0c0.38-.19.76-0.34,1.15-0.49s0.78-.3,1.18-0.43,0.73-.24,1.1-0.34l0.2-.05c0.25-.15.49-0.39,0.76-0.52,0,0.07.11,0.22,0.15,0.3l0.82-.17c0.46-.13.92-0.34,1.39-0.45s0.9-.15,1.39-0.19c0.2,0,.4,0,0.59,0-0.06.07-.12,0.23-0.18,0.3h0.11A0.71,0.71,0,0,1,49,3.21a1.18,1.18,0,0,1,.24,0h0.27c0.35,0,.7-0.07,1.05-0.06a1.17,1.17,0,0,1,.32.33l1,0.1c0.38,0,.85-0.44,1.14.17l0.1,0a1.28,1.28,0,0,1,.38-0.26,5.54,5.54,0,0,1,.74.49c0.47,0.12.94,0.25,1.41,0.38,0-.09,0-0.26-0.07-0.34s0.16,0.13.26,0.18c0.31,0.16.6,0.38,0.91,0.53l0.2,0.07a0.93,0.93,0,0,1,1,.39l0.1,0c0-.09,0-0.24,0-0.32,0.21,0.16.37,0.42,0.56,0.59,0.38,0.17.76,0.35,1.12,0.56,0.49-.31.55,0.18,0.73,0.4l0.09,0.05a0.66,0.66,0,0,1,.9.55,25.28,25.28,0,0,1,2.68,2,1.89,1.89,0,0,1,1.17,1.07c0.68,0.66,1.32,1.37,1.93,2.1V10.11l-0.91,1c-0.4.4-.76,0.83-1.18,1.2s-0.6.59-.93,0.85l-0.3.26-0.1.08a2.49,2.49,0,0,1-.39.62,18.86,18.86,0,0,1-2.19,1.37,2.51,2.51,0,0,1-.41.15l-0.18.11a0.86,0.86,0,0,1-.17.21,20.9,20.9,0,0,1-3,1.45,7.87,7.87,0,0,1-1.21.35c-0.39.14-.79,0.27-1.2,0.37a4.57,4.57,0,0,1-.7.43,13.51,13.51,0,0,1-1.77.34,1,1,0,0,1-.29-0.2c-0.52.09-1,.12-1.51,0.17s-1.11,0-1.65.07a9.49,9.49,0,0,1-1.55.17,11.24,11.24,0,0,1-1.83-.44l-0.1,0a6.88,6.88,0,0,1-1.15,0,18.62,18.62,0,0,1-3.45-1,4.74,4.74,0,0,1-.7-0.54l-0.19-.09a1.86,1.86,0,0,1-1.32-.64,22.79,22.79,0,0,1-3.62-2.32,3.22,3.22,0,0,1-1.53-1.28l-0.8-.76Z"/>
        <path class="cls-1" d="M29.67,12.71h0l0,0v0Z"/>
      </g>
    </g>
  </g>
</svg>
